<?xml version="1.0" encoding="UTF-8" standalone="no"?>
<!DOCTYPE svg PUBLIC "-//W3C//DTD SVG 1.1//EN" "http://www.w3.org/Graphics/SVG/1.1/DTD/svg11.dtd">
<svg width="100%" height="100%" viewBox="0 0 72 72" version="1.1" xmlns="http://www.w3.org/2000/svg" xmlns:xlink="http://www.w3.org/1999/xlink" xml:space="preserve" xmlns:serif="http://www.serif.com/" style="fill-rule:evenodd;clip-rule:evenodd;stroke-linejoin:round;stroke-miterlimit:2;">
    <g transform="matrix(1,0,0,1,-14,-14)">
        <g transform="matrix(1,0,0,1,-23.6432,-22.3438)">
            <g transform="matrix(1,0,0,1,1.64319,36.3438)">
                <rect x="36" y="0" width="18" height="18" style="fill:rgb(37,89,136);"/>
                <rect x="54" y="0" width="18" height="18" style="fill:rgb(154,206,202);"/>
                <rect x="72" y="0" width="18" height="18" style="fill:rgb(216,229,219);"/>
                <rect x="90" y="0" width="18" height="18" style="fill:rgb(216,229,219);"/>
            </g>
        </g>
        <g transform="matrix(1,0,0,1,-23.6432,-22.3438)">
            <g transform="matrix(1,0,0,1,1.64319,54.3438)">
                <rect x="36" y="0" width="18" height="18" style="fill:rgb(145,202,201);"/>
                <rect x="54" y="0" width="18" height="18" style="fill:rgb(49,135,169);"/>
                <rect x="72" y="0" width="18" height="18" style="fill:rgb(162,209,203);"/>
                <rect x="90" y="0" width="18" height="18" style="fill:rgb(218,230,220);"/>
            </g>
        </g>
        <g transform="matrix(1,0,0,1,-23.6432,-22.3438)">
            <g transform="matrix(1,0,0,1,1.64319,72.3438)">
                <rect x="36" y="0" width="18" height="18" style="fill:rgb(204,224,213);"/>
                <rect x="54" y="0" width="18" height="18" style="fill:rgb(157,207,202);"/>
                <rect x="72" y="0" width="18" height="18" style="fill:rgb(49,138,171);"/>
                <rect x="90" y="0" width="18" height="18" style="fill:rgb(183,217,206);"/>
            </g>
        </g>
        <g transform="matrix(1,0,0,1,-23.6432,-22.3438)">
            <g transform="matrix(1,0,0,1,1.64319,90.3438)">
                <rect x="36" y="0" width="18" height="18" style="fill:rgb(227,233,224);"/>
                <rect x="54" y="0" width="18" height="18" style="fill:rgb(212,227,217);"/>
                <rect x="72" y="0" width="18" height="18" style="fill:rgb(179,215,205);"/>
                <rect x="90" y="0" width="18" height="18" style="fill:rgb(90,175,192);"/>
            </g>
        </g>
    </g>
</svg>
